<svg width="200" height="200" viewBox="0 0 200 200" fill="none" xmlns="http://www.w3.org/2000/svg">
<circle cx="100" cy="100" r="100" fill="#DFEDFE"/>
<path d="M41 87L64 87.625L46 132L23 131.375L41 87Z" fill="#04143A"/>
<path d="M71 22L128 131.5L105 132L61 42.5L71 22Z" fill="#04143A"/>
<path d="M81.2327 102.143C84.3033 112.254 87.7266 119.313 96.1206 126.801C102.192 132.217 107.038 134.803 114.265 137.036C121.492 139.27 119.887 138.488 123.57 138.897C128.265 139.419 130.976 139.457 135.666 138.897C139.169 138.479 141.187 137.905 144.506 137.036C147.825 136.168 150.694 134.85 153.113 133.082C155.533 131.314 153.113 104.934 153.113 104.934H175.91V141.456C175.91 141.456 176.949 140.789 171.956 145.411C166.962 150.032 160.759 153.444 153.346 155.646C145.933 157.848 146.034 157.473 141.249 157.972C135.467 158.576 132.143 158.587 126.362 157.972C122.322 157.543 120.044 157.188 116.126 156.111C112.968 155.244 112.962 155.553 108.217 153.32C103.471 151.087 98.6639 147.52 95.1901 144.015C95.9035 143.798 95.4382 143.333 95.1901 144.015C95.1901 144.015 91.3321 139.846 89.3745 136.804C87.3961 133.729 86.5363 131.828 85.1873 128.429C83.3824 123.882 81.9306 116.333 81.9306 116.333C81.9306 116.333 81.0109 110.68 81.0001 107.028C80.9945 105.118 81.2327 102.143 81.2327 102.143Z" fill="#5B6A9A"/>
<path d="M128.223 52.3617C132.737 51.8579 135.335 51.9015 139.854 52.3617C143.718 52.7552 145.883 53.1784 149.624 54.2227C154.726 55.6469 157.566 56.7478 162.186 59.3404C166.385 61.6973 172.188 66.5517 172.188 66.5517L160.325 83.5332C156.261 79.0668 151.116 76.124 144.041 74.2282C142.251 73.7486 141.224 73.5538 139.389 73.2977C135.07 72.6951 132.524 72.5828 128.223 73.2977C125.047 73.8256 120.313 75.624 120.313 75.624C120.313 75.624 115.661 77.7176 113.102 80.2764C110.543 82.8353 108.915 86.092 108.915 86.092L92 92.6054C92 92.6054 93.1703 84.9694 94.5 80.2764C95.4794 76.8197 97.749 71.6694 97.749 71.6694C97.749 71.6694 100.53 66.3335 103.099 63.5276C106.809 59.4766 109.673 57.7611 114.73 55.6184C117.695 54.3625 119.494 53.977 122.64 53.2922C124.799 52.822 126.026 52.6069 128.223 52.3617Z" fill="#5B6A9A"/>
</svg>
